<?xml version="1.0" encoding="utf-8"?>
<!-- Generator: Adobe Illustrator 24.2.1, SVG Export Plug-In . SVG Version: 6.00 Build 0)  -->
<svg version="1.1" id="Layer_1" xmlns="http://www.w3.org/2000/svg" xmlns:xlink="http://www.w3.org/1999/xlink" x="0px" y="0px"
	 viewBox="0 0 100 50" style="enable-background:new 0 0 100 50;" xml:space="preserve">
<style type="text/css">
	.st0{fill:#4D4DFF;}
	.st1{fill:#1E1E1E;}
</style>
<g>
	<g>
		<polygon class="st0" points="8.5,20.5 9.2,20.1 15.7,31.4 14.3,32.2 7.8,20.9 		"/>
		<rect x="13" y="18.5" transform="matrix(0.8661 -0.4999 0.4999 0.8661 -10.6574 10.2208)" class="st0" width="1.5" height="13"/>
		<rect x="15" y="17.3" transform="matrix(0.866 -0.5001 0.5001 0.866 -9.8164 11.0672)" class="st0" width="1.5" height="13"/>
		<g>
			<polygon class="st0" points="13.8,17.4 14.6,18.8 20.5,15.4 20.5,13.6 			"/>
			<polygon class="st0" points="15,19.4 15.7,20.8 20.5,18 20.5,16.3 			"/>
			<polygon class="st0" points="16.1,21.4 16.9,22.7 20.5,20.7 20.5,18.9 			"/>
		</g>
		<g>
			<polygon class="st0" points="11.4,28.6 10.6,27.3 7,29.3 7,31.1 			"/>
			<polygon class="st0" points="12.5,30.6 11.8,29.2 7,32 7,33.7 			"/>
			<polygon class="st0" points="12.9,31.2 7,34.6 7,36.4 13.7,32.6 			"/>
		</g>
	</g>
	<g>
		<path class="st1" d="M24.8,29.4c0-0.3,0.1-0.5,0.4-0.7c0.2-0.1,0.3-0.1,0.5-0.1c0.2,0,0.4,0.1,0.7,0.3c0.3,0.3,0.7,0.6,1,0.8
			c0.4,0.2,0.8,0.2,1.3,0.2c0.9,0,1.3-0.4,1.3-1c0-0.3-0.1-0.6-0.4-0.7c-0.3-0.2-0.7-0.3-1.4-0.5c-0.6-0.2-1.2-0.4-1.6-0.5
			c-0.4-0.2-0.7-0.4-1-0.8c-0.3-0.4-0.4-0.8-0.4-1.4c0-0.5,0.2-1,0.5-1.4c0.3-0.4,0.7-0.7,1.2-0.9c0.5-0.2,1-0.3,1.6-0.3
			c0.6,0,1.1,0.1,1.7,0.3c0.6,0.2,1,0.5,1.3,0.9c0.1,0.2,0.2,0.4,0.2,0.6c0,0.3-0.1,0.5-0.3,0.6C31.1,24.9,31,25,30.8,25
			c-0.2,0-0.4-0.1-0.6-0.2c-0.2-0.2-0.5-0.4-0.8-0.6C29.1,24,28.7,24,28.3,24c-0.8,0-1.3,0.3-1.3,0.9c0,0.2,0.1,0.4,0.2,0.6
			c0.2,0.1,0.3,0.3,0.6,0.3c0.2,0.1,0.6,0.2,1,0.3c0.6,0.2,1.1,0.3,1.5,0.5c0.4,0.2,0.7,0.4,1,0.8c0.3,0.4,0.4,0.8,0.4,1.4
			c0,0.5-0.2,1-0.5,1.4c-0.3,0.4-0.7,0.7-1.2,0.9c-0.5,0.2-1,0.3-1.5,0.3c-0.7,0-1.4-0.1-2-0.4c-0.6-0.2-1.1-0.6-1.5-1.2
			C24.9,29.8,24.8,29.6,24.8,29.4z"/>
		<path class="st1" d="M41.3,30.3c0,0.3-0.1,0.5-0.3,0.7c-0.2,0.2-0.4,0.3-0.7,0.3c-0.3,0-0.5-0.1-0.7-0.3l-3-3.1l-0.8,0.7v1.7
			c0,0.3-0.1,0.5-0.3,0.7c-0.2,0.2-0.4,0.3-0.7,0.3c-0.3,0-0.5-0.1-0.7-0.3c-0.2-0.2-0.3-0.4-0.3-0.7V20.1c0-0.3,0.1-0.5,0.3-0.7
			c0.2-0.2,0.4-0.3,0.7-0.3c0.3,0,0.5,0.1,0.7,0.3c0.2,0.2,0.3,0.4,0.3,0.7v6.1l3.5-3.4c0.2-0.2,0.4-0.3,0.7-0.3
			c0.2,0,0.5,0.1,0.7,0.3c0.2,0.2,0.3,0.4,0.3,0.6c0,0.3-0.1,0.5-0.4,0.7l-2.5,2.3l2.9,3.1C41.2,29.8,41.3,30,41.3,30.3z"/>
		<path class="st1" d="M43.4,21.3c-0.2-0.1-0.2-0.3-0.2-0.6v-0.3c0-0.3,0.1-0.5,0.2-0.6c0.2-0.1,0.4-0.2,0.8-0.2
			c0.4,0,0.7,0.1,0.8,0.2c0.2,0.1,0.2,0.3,0.2,0.6v0.3c0,0.3-0.1,0.5-0.2,0.7c-0.2,0.1-0.4,0.2-0.8,0.2
			C43.8,21.4,43.5,21.4,43.4,21.3z M44.9,31c-0.2,0.2-0.4,0.3-0.7,0.3c-0.3,0-0.5-0.1-0.7-0.3c-0.2-0.2-0.3-0.4-0.3-0.7v-6.8
			c0-0.3,0.1-0.5,0.3-0.7c0.2-0.2,0.4-0.3,0.7-0.3c0.3,0,0.5,0.1,0.7,0.3c0.2,0.2,0.3,0.4,0.3,0.7v6.8C45.2,30.6,45.1,30.8,44.9,31z
			"/>
		<path class="st1" d="M49.3,31c-0.2,0.2-0.4,0.3-0.7,0.3c-0.3,0-0.5-0.1-0.7-0.3c-0.2-0.2-0.3-0.5-0.3-0.8V18.3
			c0-0.3,0.1-0.6,0.3-0.8c0.2-0.2,0.4-0.3,0.7-0.3c0.3,0,0.5,0.1,0.7,0.3c0.2,0.2,0.3,0.5,0.3,0.8v11.8C49.6,30.5,49.5,30.7,49.3,31
			z"/>
		<path class="st1" d="M54,30.9c-0.2,0.3-0.4,0.4-0.7,0.4c-0.3,0-0.5-0.1-0.7-0.4c-0.2-0.3-0.3-0.6-0.3-0.9V16.5
			c0-0.4,0.1-0.7,0.3-0.9c0.2-0.3,0.4-0.4,0.7-0.4c0.3,0,0.5,0.1,0.7,0.4c0.2,0.3,0.3,0.6,0.3,0.9V30C54.3,30.4,54.2,30.7,54,30.9z"
			/>
		<path class="st1" d="M64.3,27.3c-0.2,0.2-0.4,0.2-0.7,0.2h-5.4c0.1,0.6,0.4,1.2,0.9,1.5c0.5,0.4,1,0.6,1.6,0.6
			c0.4,0,0.8,0,1.1-0.1c0.3-0.1,0.5-0.2,0.6-0.3c0.1-0.1,0.2-0.2,0.3-0.2c0.2-0.1,0.4-0.1,0.6-0.1c0.2,0,0.4,0.1,0.6,0.2
			c0.2,0.2,0.2,0.4,0.2,0.6c0,0.3-0.2,0.6-0.5,0.8c-0.3,0.3-0.7,0.5-1.2,0.6c-0.5,0.2-1,0.3-1.6,0.3c-0.9,0-1.7-0.2-2.4-0.6
			c-0.7-0.4-1.2-0.9-1.6-1.6c-0.4-0.7-0.6-1.4-0.6-2.3c0-0.9,0.2-1.8,0.6-2.5c0.4-0.7,0.9-1.3,1.6-1.6c0.6-0.4,1.3-0.6,2.1-0.6
			c0.7,0,1.4,0.2,2,0.6c0.6,0.4,1.2,0.9,1.5,1.6c0.4,0.7,0.6,1.4,0.6,2.2C64.6,27,64.5,27.2,64.3,27.3z M58.2,25.9h4.3v-0.1
			c0-0.5-0.3-0.9-0.7-1.2c-0.4-0.3-0.9-0.5-1.4-0.5C59.2,24.1,58.4,24.7,58.2,25.9z"/>
		<path class="st1" d="M73.6,23.3c0.4,0.7,0.6,1.6,0.6,2.8v4.2c0,0.3-0.1,0.5-0.3,0.7c-0.2,0.2-0.4,0.3-0.7,0.3
			c-0.3,0-0.5-0.1-0.7-0.3c-0.2-0.2-0.3-0.4-0.3-0.7v-4.2c0-0.6-0.1-1.1-0.4-1.4c-0.3-0.3-0.7-0.5-1.3-0.5c-0.6,0-1.1,0.2-1.5,0.6
			c-0.4,0.4-0.5,0.8-0.5,1.4v4.2c0,0.3-0.1,0.5-0.3,0.7c-0.2,0.2-0.4,0.3-0.7,0.3c-0.3,0-0.5-0.1-0.7-0.3c-0.2-0.2-0.3-0.4-0.3-0.7
			v-6.8c0-0.3,0.1-0.5,0.3-0.7c0.2-0.2,0.4-0.3,0.7-0.3c0.3,0,0.5,0.1,0.7,0.3c0.2,0.2,0.3,0.4,0.3,0.7v0.3c0.3-0.4,0.7-0.7,1.2-1
			c0.5-0.3,1-0.4,1.6-0.4C72.4,22.3,73.1,22.7,73.6,23.3z"/>
		<path class="st1" d="M82.9,29.8c0.2,0.2,0.3,0.4,0.3,0.7c0,0.3-0.1,0.5-0.3,0.6c-0.2,0.2-0.4,0.3-0.7,0.3h-5.3
			c-0.3,0-0.5-0.1-0.6-0.3c-0.2-0.2-0.3-0.4-0.3-0.6c0-0.2,0-0.3,0.1-0.5c0-0.1,0.1-0.3,0.2-0.4l3.9-5.1h-3.2
			c-0.3,0-0.5-0.1-0.7-0.3c-0.2-0.2-0.3-0.4-0.3-0.7c0-0.3,0.1-0.5,0.3-0.6c0.2-0.2,0.4-0.3,0.7-0.3h5.1c0.2,0,0.4,0.1,0.6,0.3
			c0.2,0.2,0.3,0.4,0.3,0.6c0,0.2,0,0.3,0,0.4c0,0.1-0.1,0.2-0.2,0.4l-4,5.1h3.4C82.5,29.5,82.7,29.6,82.9,29.8z"/>
		<path class="st1" d="M92.7,22.6c0.2,0.2,0.3,0.4,0.3,0.7v7c0,0.3-0.1,0.5-0.3,0.7c-0.2,0.2-0.4,0.3-0.7,0.3
			c-0.3,0-0.5-0.1-0.7-0.3c-0.2-0.2-0.3-0.4-0.3-0.7c-0.3,0.3-0.6,0.6-1.1,0.8c-0.5,0.2-1,0.3-1.5,0.3c-0.8,0-1.4-0.2-2.1-0.6
			c-0.6-0.4-1.1-0.9-1.5-1.6c-0.4-0.7-0.5-1.5-0.5-2.4c0-0.9,0.2-1.7,0.5-2.4c0.4-0.7,0.8-1.2,1.4-1.6c0.6-0.4,1.3-0.6,2-0.6
			c0.5,0,1,0.1,1.5,0.3c0.5,0.2,0.9,0.4,1.2,0.7v0c0-0.3,0.1-0.5,0.3-0.7c0.2-0.2,0.4-0.3,0.7-0.3C92.3,22.3,92.5,22.4,92.7,22.6z
			 M90.4,28.9c0.4-0.5,0.7-1.2,0.7-2c0-0.8-0.2-1.4-0.7-2c-0.4-0.5-1-0.8-1.7-0.8c-0.7,0-1.3,0.3-1.7,0.8c-0.5,0.5-0.7,1.2-0.7,2
			c0,0.8,0.2,1.4,0.7,2c0.4,0.5,1,0.8,1.7,0.8C89.4,29.7,89.9,29.4,90.4,28.9z"/>
	</g>
</g>
</svg>
