<svg id="fbeaa106-85b0-4d3b-9f23-e120d706f552" xmlns="http://www.w3.org/2000/svg" viewBox="0 0 425.87 548.97"><defs><style>.cls-1{fill:#e6e6e6;}.cls-2{fill:#fff;}.cls-3{fill:#3770ff;}</style></defs><path class="cls-1" d="M15.5,0A15.51,15.51,0,0,0,0,15.5v518A15.52,15.52,0,0,0,15.5,549H410.37a15.52,15.52,0,0,0,15.5-15.5V15.5A15.51,15.51,0,0,0,410.37,0Z" transform="translate(0)"/><path class="cls-2" d="M398.52,208.36H27.36a16.53,16.53,0,0,1-16.5-16.5V86.08a16.52,16.52,0,0,1,16.5-16.5H398.52A16.52,16.52,0,0,1,415,86.08V191.86A16.54,16.54,0,0,1,398.52,208.36Z" transform="translate(0)"/><path class="cls-2" d="M398.52,369.84H27.36a16.52,16.52,0,0,1-16.5-16.5V247.57a16.52,16.52,0,0,1,16.5-16.5H398.52a16.52,16.52,0,0,1,16.5,16.5V353.34A16.52,16.52,0,0,1,398.52,369.84Z" transform="translate(0)"/><path class="cls-2" d="M27.36,393.56a15.51,15.51,0,0,0-15.5,15.5V514.83a15.51,15.51,0,0,0,15.5,15.5H398.52a15.52,15.52,0,0,0,15.5-15.5V409.06a15.52,15.52,0,0,0-15.5-15.5Z" transform="translate(0)"/><circle class="cls-2" cx="403.79" cy="20.96" r="11.29"/><circle class="cls-1" cx="48.34" cy="300.46" r="11.29"/><path class="cls-1" d="M178.21,310H90.13a9.54,9.54,0,1,1,0-19.07h88.08a9.54,9.54,0,0,1,0,19.07Z" transform="translate(0)"/><circle class="cls-1" cx="249.07" cy="301.02" r="11.29"/><path class="cls-1" d="M378.94,310.56H290.86a9.54,9.54,0,1,1,0-19.07h88.08a9.54,9.54,0,1,1,0,19.07Z" transform="translate(0)"/><polygon class="cls-1" points="409.67 16.67 408.07 15.08 403.79 19.36 399.5 15.08 397.91 16.67 402.19 20.96 397.91 25.24 399.5 26.84 403.79 22.55 408.07 26.84 409.67 25.24 405.38 20.96 409.67 16.67"/><circle class="cls-1" cx="48.34" cy="138.97" r="11.29"/><path class="cls-1" d="M379.79,147.37H111a9.54,9.54,0,0,1,0-19.07H379.79a9.54,9.54,0,0,1,0,19.07Z" transform="translate(0)"/><path class="cls-3" d="M332.92,147.37H93.51a9.54,9.54,0,0,1,0-19.07H332.92a9.54,9.54,0,0,1,0,19.07Z" transform="translate(0)"/><circle class="cls-1" cx="48.34" cy="461.95" r="11.29"/><path class="cls-1" d="M379.79,470.35H111a9.54,9.54,0,1,1,0-19.07H379.79a9.54,9.54,0,0,1,0,19.07Z" transform="translate(0)"/><path class="cls-3" d="M236.65,470.35H93.51a9.54,9.54,0,0,1,0-19.07H236.65a9.54,9.54,0,1,1,0,19.07Z" transform="translate(0)"/><path class="cls-3" d="M105.65,310H90.13a9.54,9.54,0,1,1,0-19.07h15.52a9.54,9.54,0,1,1,0,19.07Z" transform="translate(0)"/><path class="cls-3" d="M339.42,310.56H290.86a9.54,9.54,0,1,1,0-19.07h48.56a9.54,9.54,0,0,1,0,19.07Z" transform="translate(0)"/></svg>