<svg xmlns="http://www.w3.org/2000/svg" viewBox="0 0 512.72 663.43"><defs><style>.cls-1,.cls-4,.cls-5,.cls-6{fill:none;}.cls-1{stroke:#fafafa;}.cls-1,.cls-4,.cls-5{stroke-miterlimit:10;}.cls-2{fill:#e8e8e8;}.cls-3{fill:#a0a0a0;}.cls-4{stroke:#e0e0e0;}.cls-5{stroke:#ebebeb;}.cls-7{fill:#263238;}.cls-8{fill:#7ad9fe;}.cls-9{fill:#ebebeb;}.cls-10{fill:#fff;}.cls-11{fill:#e0e0e0;}</style></defs><g id="Background_Complete" data-name="Background Complete"><rect class="cls-1" x="165.21" y="448.16" width="347.01" height="214.77"/><path class="cls-2" d="M432.56,608.86c-24.07-9.13-51.74,16.11-75.33,5.82-13.73-6-20-21.51-26.68-34.89s-18.31-27.5-33.2-25.95-27.17,19-41.68,14.77c-9.15-2.64-13.72-12.78-16-22s-3.88-19.46-10.85-25.94-21.51-4.74-22.6,4.72V639.22H477.57S440.88,612,432.56,608.86Z" transform="translate(-4.11 -5.41)"/><path class="cls-3" d="M484.82,639.22c0,.25-65.78.44-146.9.44s-146.9-.19-146.9-.44,65.76-.44,146.9-.44S484.82,639,484.82,639.22Z" transform="translate(-4.11 -5.41)"/><path class="cls-3" d="M484.82,589.49c0,.25-65.78.44-146.9.44s-146.9-.19-146.9-.44,65.76-.44,146.9-.44S484.82,589.25,484.82,589.49Z" transform="translate(-4.11 -5.41)"/><path class="cls-3" d="M484.82,539.76c0,.25-65.78.44-146.9.44S191,540,191,539.76s65.76-.44,146.9-.44S484.82,539.52,484.82,539.76Z" transform="translate(-4.11 -5.41)"/><path class="cls-3" d="M484.82,492.5c0,.24-65.78.44-146.9.44s-146.9-.2-146.9-.44,65.76-.44,146.9-.44S484.82,492.25,484.82,492.5Z" transform="translate(-4.11 -5.41)"/></g><g id="Panel"><polygon class="cls-4" points="441.5 433.14 22.73 433.14 26.46 23.43 420.9 2.81 441.5 433.14"/><polygon class="cls-5" points="427.13 422.56 8.36 422.56 12.09 12.85 418.7 4.91 427.13 422.56"/><polygon class="cls-6" points="418.45 411.13 0.52 411.13 0.52 1.43 418.7 0.45 418.45 411.13"/><path class="cls-7" d="M422.56,416.55c0-3.83-.08-164.35-.2-410.69l.45.45L5.29,7.36H4.63l.52-.52c0,149.88-.05,290.42-.07,409.71l-.45-.46,417.93.46L4.63,417H4.18v-.45c0-119.29,0-259.83-.07-409.71V6.32H5.29l417.52-.91h.45v.45C422.84,252.2,422.56,412.72,422.56,416.55Z" transform="translate(-4.11 -5.41)"/><path class="cls-7" d="M390.6,278.8s-.44,0-1.31.05l-3.84,0-14.77.1-54.32.17-179.23.15-77.29,0h-.5v-.5c.08-51.21.14-95.24.19-126.52.06-15.6.11-28,.14-36.56,0-4.23.07-7.5.08-9.75,0-1.09,0-1.92,0-2.52s0-.85,0-.85,0,.29,0,.85,0,1.43,0,2.52c0,2.25,0,5.52.08,9.75,0,8.55.09,21,.15,36.56,0,31.28.11,75.31.18,126.52l-.49-.5,77.29,0,179.23.15,54.32.17,14.77.09,3.84.06C390.16,278.76,390.6,278.8,390.6,278.8Z" transform="translate(-4.11 -5.41)"/><rect class="cls-8" x="82.61" y="229.86" width="33.41" height="33.41"/><rect class="cls-8" x="131.59" y="205.97" width="33.41" height="57.3"/><rect class="cls-8" x="180.77" y="178.84" width="33.41" height="84.43"/><rect class="cls-8" x="228.44" y="148.63" width="33.41" height="114.63"/><rect class="cls-8" x="277.23" y="109.96" width="33.41" height="153.31"/><rect class="cls-8" x="325.65" y="80.47" width="33.41" height="181.22"/><path class="cls-7" d="M86.72,201a3.08,3.08,0,0,1,.43-.33l1.3-.89,5.09-3.41,19.15-12.62L179,140.43l.77-.51v.92c0,4.73,0,9.8,0,15l-.79-.43,26.12-17.52,92.2-61.6,28-18.57,7.64-5,2-1.28a6,6,0,0,1,.7-.41,4,4,0,0,1-.64.5l-1.95,1.36L325.54,58,297.71,76.86l-92,61.86-26.14,17.5-.79.53v-.95c0-5.16,0-10.23,0-15l.77.42-66.5,43L93.72,196.66l-5.18,3.27-1.35.83A2.29,2.29,0,0,1,86.72,201Z" transform="translate(-4.11 -5.41)"/><path class="cls-7" d="M335.66,65.13c-.14,0-.26-1.56-.35-4.12s-.16-6.11-.17-10.09l.52.52h-1.28c-4.28,0-8.15-.06-11-.15s-4.53-.23-4.53-.37,1.73-.28,4.53-.37,6.68-.15,11-.15h1.8v.52c0,4-.07,7.54-.17,10.09S335.8,65.13,335.66,65.13Z" transform="translate(-4.11 -5.41)"/><path class="cls-9" d="M103,111.25s-4,36.89,1.15,57.09l49.29-2.15s-10.56-36.4-4.07-52.52Z" transform="translate(-4.11 -5.41)"/><path class="cls-8" d="M103.21,110.06s.34,39.83,2.37,52l50-2.37s-4.39-39.15-2.7-49.62Z" transform="translate(-4.11 -5.41)"/><path class="cls-10" d="M145.3,126.79c0,.19-7.48.79-16.74,1.34s-16.77.86-16.78.68,7.48-.78,16.74-1.34S145.29,126.61,145.3,126.79Z" transform="translate(-4.11 -5.41)"/><path class="cls-10" d="M145.32,135.23c0,.18-7.49.78-16.74,1.34s-16.78.86-16.79.68,7.49-.79,16.75-1.34S145.31,135.05,145.32,135.23Z" transform="translate(-4.11 -5.41)"/><path class="cls-10" d="M136.83,143.51a11.55,11.55,0,0,1-2.79.41c-1.72.16-4.11.34-6.74.5s-5,.27-6.76.31a12,12,0,0,1-2.81-.07,11.63,11.63,0,0,1,2.78-.4c1.72-.17,4.11-.35,6.75-.51s5-.26,6.75-.3A11.89,11.89,0,0,1,136.83,143.51Z" transform="translate(-4.11 -5.41)"/><path class="cls-7" d="M159.1,305.75c0,.28-10.32.52-23.06.52S113,306,113,305.75s10.33-.52,23.07-.52S159.1,305.46,159.1,305.75Z" transform="translate(-4.11 -5.41)"/><path class="cls-7" d="M135.41,321.54c-.28,0-.52-2.42-.52-5.4s.24-5.41.52-5.41.53,2.42.53,5.41S135.7,321.54,135.41,321.54Z" transform="translate(-4.11 -5.41)"/><path class="cls-7" d="M191.93,326.94c0,.29-27.72.52-61.91.52s-61.93-.23-61.93-.52,27.72-.52,61.93-.52S191.93,326.65,191.93,326.94Z" transform="translate(-4.11 -5.41)"/><path class="cls-7" d="M68.92,342.32c-.29,0-.52-3.35-.52-7.48s.23-7.48.52-7.48.52,3.35.52,7.48S69.21,342.32,68.92,342.32Z" transform="translate(-4.11 -5.41)"/><path class="cls-7" d="M113,340.65c-.28,0-.52-2.88-.52-6.44s.24-6.44.52-6.44.52,2.89.52,6.44S113.26,340.65,113,340.65Z" transform="translate(-4.11 -5.41)"/><path class="cls-7" d="M158.27,341.49c-.29,0-.52-3.17-.52-7.07s.23-7.06.52-7.06.52,3.16.52,7.06S158.56,341.49,158.27,341.49Z" transform="translate(-4.11 -5.41)"/><path class="cls-7" d="M192.76,341.49c-.28,0-.52-3.26-.52-7.28s.24-7.27.52-7.27.53,3.26.53,7.27S193.05,341.49,192.76,341.49Z" transform="translate(-4.11 -5.41)"/><path class="cls-7" d="M84.3,346.47c0,.29-6.7.52-15,.52s-15-.23-15-.52,6.69-.52,15-.52S84.3,346.19,84.3,346.47Z" transform="translate(-4.11 -5.41)"/><path class="cls-7" d="M122.53,346.47c0,.29-5.12.52-11.43.52s-11.42-.23-11.42-.52,5.11-.52,11.42-.52S122.53,346.19,122.53,346.47Z" transform="translate(-4.11 -5.41)"/><path class="cls-7" d="M171.15,347.72c0,.29-5.48.52-12.25.52s-12.26-.23-12.26-.52,5.48-.52,12.26-.52S171.15,347.43,171.15,347.72Z" transform="translate(-4.11 -5.41)"/><path class="cls-7" d="M210.63,345.64c0,.29-5.86.52-13.09.52s-13.09-.23-13.09-.52,5.86-.52,13.09-.52S210.63,345.35,210.63,345.64Z" transform="translate(-4.11 -5.41)"/><path class="cls-7" d="M69.34,361c-.29,0-.52-2-.52-4.37s.23-4.36.52-4.36.52,1.95.52,4.36S69.63,361,69.34,361Z" transform="translate(-4.11 -5.41)"/><path class="cls-7" d="M97.78,361c0,.29-12.09.52-27,.52s-27-.23-27-.52,12.09-.52,27-.52S97.78,360.73,97.78,361Z" transform="translate(-4.11 -5.41)"/><path class="cls-7" d="M97.78,373.49c-.29,0-.52-2.8-.52-6.24s.23-6.23.52-6.23.52,2.79.52,6.23S98.07,373.49,97.78,373.49Z" transform="translate(-4.11 -5.41)"/><path class="cls-7" d="M43.76,374.32c-.29,0-.52-3-.52-6.65s.23-6.65.52-6.65.52,3,.52,6.65S44,374.32,43.76,374.32Z" transform="translate(-4.11 -5.41)"/><path class="cls-7" d="M159.38,361c-.29,0-.52-2-.52-4.37s.23-4.36.52-4.36.52,1.95.52,4.36S159.67,361,159.38,361Z" transform="translate(-4.11 -5.41)"/><path class="cls-7" d="M225.05,361c0,.29-20.43.52-45.62.52s-45.63-.23-45.63-.52,20.42-.52,45.63-.52S225.05,360.73,225.05,361Z" transform="translate(-4.11 -5.41)"/><path class="cls-7" d="M187.82,373.49c-.29,0-.52-2.8-.52-6.24s.23-6.23.52-6.23.52,2.79.52,6.23S188.11,373.49,187.82,373.49Z" transform="translate(-4.11 -5.41)"/><path class="cls-7" d="M226.92,373.49c-.29,0-.53-2.8-.53-6.24s.24-6.23.53-6.23.52,2.79.52,6.23S227.2,373.49,226.92,373.49Z" transform="translate(-4.11 -5.41)"/><path class="cls-7" d="M133.8,374.32c-.29,0-.52-3-.52-6.65s.23-6.65.52-6.65.52,3,.52,6.65S134.09,374.32,133.8,374.32Z" transform="translate(-4.11 -5.41)"/><path class="cls-7" d="M54.4,382c0,.29-4.76.52-10.64.52s-10.65-.23-10.65-.52,4.77-.52,10.65-.52S54.4,381.69,54.4,382Z" transform="translate(-4.11 -5.41)"/><path class="cls-7" d="M107.31,380.45c0,.29-5.15.52-11.5.52s-11.51-.23-11.51-.52,5.15-.52,11.51-.52S107.31,380.17,107.31,380.45Z" transform="translate(-4.11 -5.41)"/><path class="cls-7" d="M145.55,380.45c0,.29-4.54.52-10.13.52s-10.14-.23-10.14-.52,4.54-.52,10.14-.52S145.55,380.17,145.55,380.45Z" transform="translate(-4.11 -5.41)"/><path class="cls-7" d="M197.08,380.45c0,.29-4.92.52-11,.52s-11-.23-11-.52,4.92-.52,11-.52S197.08,380.17,197.08,380.45Z" transform="translate(-4.11 -5.41)"/><path class="cls-7" d="M238.3,379.08c0,.29-5,.52-11.17.52s-11.16-.23-11.16-.52,5-.52,11.16-.52S238.3,378.79,238.3,379.08Z" transform="translate(-4.11 -5.41)"/><path class="cls-7" d="M390.3,387.19H249.21V299.82H390.3Zm-141-.11H390.2V299.92H249.31Z" transform="translate(-4.11 -5.41)"/><path class="cls-8" d="M356.21,363c-9.77-3.71-21,6.54-30.6,2.36-5.58-2.43-8.11-8.74-10.84-14.18s-7.44-11.17-13.49-10.54-11,7.71-16.94,6c-3.71-1.07-5.57-5.19-6.5-8.95s-1.58-7.9-4.41-10.53-8.74-1.93-9.18,1.91V375.3H374.5S359.6,364.25,356.21,363Z" transform="translate(-4.11 -5.41)"/><path class="cls-11" d="M377.45,375.3c0,.1-26.73.18-59.69.18s-59.69-.08-59.69-.18,26.72-.18,59.69-.18S377.45,375.2,377.45,375.3Z" transform="translate(-4.11 -5.41)"/><path class="cls-7" d="M377.45,355.1c0,.1-26.73.18-59.69.18s-59.69-.08-59.69-.18,26.72-.18,59.69-.18S377.45,355,377.45,355.1Z" transform="translate(-4.11 -5.41)"/><path class="cls-7" d="M377.45,334.89c0,.1-26.73.18-59.69.18s-59.69-.08-59.69-.18,26.72-.18,59.69-.18S377.45,334.79,377.45,334.89Z" transform="translate(-4.11 -5.41)"/><path class="cls-7" d="M377.45,315.69c0,.1-26.73.18-59.69.18s-59.69-.08-59.69-.18,26.72-.18,59.69-.18S377.45,315.59,377.45,315.69Z" transform="translate(-4.11 -5.41)"/><path class="cls-7" d="M59.85,35.53h.77a13.4,13.4,0,0,1,2.2.2,12.29,12.29,0,0,1,3.32,1.13,11,11,0,0,1,3.54,3A12.63,12.63,0,0,1,72,45.09a12.21,12.21,0,0,1-.82,6.51,19.27,19.27,0,0,1-1.61,3.21A36,36,0,0,0,67.75,58a28.48,28.48,0,0,0-2.44,7.42l0,.17h-.17l-5.23-.13-5.48-.13h-.19v-.2A15.64,15.64,0,0,0,52,57.83c-.59-1.11-1.24-2.15-1.85-3.2a31.86,31.86,0,0,1-1.74-3.11,10.22,10.22,0,0,1-.57-6.47,13.58,13.58,0,0,1,2.26-5.19,10.18,10.18,0,0,1,3.56-3,13,13,0,0,1,3.3-1.12,13.75,13.75,0,0,1,2.17-.27h.57l.19,0-.19,0-.56,0a16.71,16.71,0,0,0-2.15.34,13.28,13.28,0,0,0-3.23,1.16A10.08,10.08,0,0,0,50.27,40a13.54,13.54,0,0,0-2.16,5.09,9.94,9.94,0,0,0,.58,6.27,30.81,30.81,0,0,0,1.74,3.06c.6,1,1.27,2.1,1.87,3.21a16,16,0,0,1,2.31,7.52l-.2-.2,5.48.13,5.23.13-.2.17a28.6,28.6,0,0,1,2.49-7.53,34.85,34.85,0,0,1,1.85-3.25,19.52,19.52,0,0,0,1.61-3.15,12,12,0,0,0,.83-6.33,12.35,12.35,0,0,0-2.23-5.08A10.74,10.74,0,0,0,66,37a12.24,12.24,0,0,0-3.25-1.18,13.36,13.36,0,0,0-2.17-.26l-.57,0Z" transform="translate(-4.11 -5.41)"/><path class="cls-7" d="M61.38,65s0-.06,0-.17,0-.28-.06-.5c0-.44-.12-1.08-.22-1.89-.17-1.66-.42-4.05-.54-7,0-.75,0-1.52,0-2.33s0-1.66.08-2.53A7.17,7.17,0,0,1,61.29,48,4,4,0,0,1,63.38,46a2.69,2.69,0,0,1,2.86.66,2.05,2.05,0,0,1,.56,1.47,2.61,2.61,0,0,1-.6,1.5,3.36,3.36,0,0,1-1.32,1,6.61,6.61,0,0,1-1.59.46,18.62,18.62,0,0,1-3.35.26,19.5,19.5,0,0,1-3.35-.3A6.26,6.26,0,0,1,55,50.52a3.94,3.94,0,0,1-1.29-1A3.06,3.06,0,0,1,53,48.08a2.39,2.39,0,0,1,.25-1.56,2.11,2.11,0,0,1,1.15-1,1.91,1.91,0,0,1,1.5.13,2.92,2.92,0,0,1,1.09,1A3.89,3.89,0,0,1,57.5,48a15.75,15.75,0,0,1,.16,2.71c0,1.74,0,3.37.06,4.85,0,3,.06,5.36.07,7,0,.82,0,1.46,0,1.91v.66s0-.05,0-.17,0-.28,0-.49c0-.45,0-1.09,0-1.91,0-1.67-.07-4.07-.13-7,0-1.48-.05-3.11-.07-4.85A16.29,16.29,0,0,0,57.36,48a3.75,3.75,0,0,0-.49-1.29,2.7,2.7,0,0,0-1-1,1.79,1.79,0,0,0-1.38-.12,2,2,0,0,0-1.06,1,2.23,2.23,0,0,0-.23,1.46,2.94,2.94,0,0,0,.67,1.37,4.76,4.76,0,0,0,2.78,1.47,20.55,20.55,0,0,0,6.64,0,6.81,6.81,0,0,0,1.56-.44,3.42,3.42,0,0,0,1.25-.93,2.41,2.41,0,0,0,.57-1.4,1.88,1.88,0,0,0-.51-1.36,2.56,2.56,0,0,0-2.69-.63,3.89,3.89,0,0,0-2,1.86,7.23,7.23,0,0,0-.69,2.57c-.08.86-.09,1.71-.1,2.52s0,1.58,0,2.32c.1,3,.34,5.36.49,7,.08.82.14,1.46.18,1.9,0,.21,0,.38,0,.5S61.38,65,61.38,65Z" transform="translate(-4.11 -5.41)"/><path class="cls-7" d="M54.41,65s0,.66.07,1.77c0,1.28,0,2.8.05,4.59l0-.12,3.39,4.25-.18-.09,4.13-.06-.18.08L63.8,73l1.08-1.21-.06.16c0-2.42.08-4.7.12-6.79l.21.22-7.69-.22-2.22-.09a5.77,5.77,0,0,1-.83-.07,4.73,4.73,0,0,1,.74,0l2.17,0h8.06v.22c0,2.08,0,4.37-.06,6.78v.1l-.06.06-1.07,1.21L62,75.75l-.07.08h-.11l-4.12,0H57.6l-.07-.09c-1.21-1.57-2.33-3-3.33-4.3l0,0v-.07c.06-1.82.11-3.39.15-4.7A11.92,11.92,0,0,1,54.41,65Z" transform="translate(-4.11 -5.41)"/><path class="cls-7" d="M64.79,71.4l-.38-.18c-.24-.12-.6-.29-1-.47a10.65,10.65,0,0,0-3.7-.71,10.44,10.44,0,0,0-3.71.64c-.45.17-.81.33-1.06.44a3.06,3.06,0,0,1-.38.18,1.4,1.4,0,0,1,.36-.23,7.35,7.35,0,0,1,1-.5,10.06,10.06,0,0,1,3.75-.7,10.2,10.2,0,0,1,3.74.77,11,11,0,0,1,1,.52A1.63,1.63,0,0,1,64.79,71.4Z" transform="translate(-4.11 -5.41)"/><path class="cls-7" d="M64.86,69.75a2.73,2.73,0,0,1-.39-.18c-.24-.12-.6-.29-1-.47A10.48,10.48,0,0,0,56,69c-.46.17-.81.33-1.06.45a3.33,3.33,0,0,1-.39.17,2.39,2.39,0,0,1,.36-.23,8.94,8.94,0,0,1,1-.5,10.18,10.18,0,0,1,3.75-.7,10,10,0,0,1,3.74.78,8.18,8.18,0,0,1,1,.51A2,2,0,0,1,64.86,69.75Z" transform="translate(-4.11 -5.41)"/><path class="cls-7" d="M64.82,68.18,64.44,68a11.17,11.17,0,0,0-1-.46,10.41,10.41,0,0,0-3.7-.72,10.57,10.57,0,0,0-3.7.64,10.84,10.84,0,0,0-1.06.45,3.33,3.33,0,0,1-.39.17,1.85,1.85,0,0,1,.36-.23,8.66,8.66,0,0,1,1-.5,10.28,10.28,0,0,1,3.76-.7,10,10,0,0,1,3.73.78,8.44,8.44,0,0,1,1,.51A1.34,1.34,0,0,1,64.82,68.18Z" transform="translate(-4.11 -5.41)"/><path class="cls-7" d="M217.12,45.39c0,.29-29.22.52-65.25.52s-65.26-.23-65.26-.52,29.21-.52,65.26-.52S217.12,45.1,217.12,45.39Z" transform="translate(-4.11 -5.41)"/><path class="cls-7" d="M134.53,57.28c0,.29-11,.53-24.47.53s-24.47-.24-24.47-.53,11-.52,24.47-.52S134.53,57,134.53,57.28Z" transform="translate(-4.11 -5.41)"/><path class="cls-7" d="M160.53,57.28c0,.29-4.22.53-9.43.53s-9.43-.24-9.43-.53,4.22-.52,9.43-.52S160.53,57,160.53,57.28Z" transform="translate(-4.11 -5.41)"/><path class="cls-7" d="M433.37,182.76a1.28,1.28,0,0,1-.08-.46c0-.36-.08-.8-.14-1.33-.1-1.27-.23-3-.4-5.15-.31-4.57-.75-11-1.3-18.95-1-16.08-2.37-38.15-3.88-62.52S424.91,47.88,424,31.79c-.41-7.94-.73-14.39-1-19-.09-2.16-.16-3.88-.21-5.15,0-.54,0-1,0-1.35a1.38,1.38,0,0,1,0-.46,1.36,1.36,0,0,1,.08.46c0,.36.08.8.13,1.33.1,1.27.24,3,.41,5.15.31,4.57.75,11,1.29,19,1,16.08,2.37,38.15,3.89,62.53s2.66,46.46,3.58,62.55c.4,7.93.73,14.39,1,19q.14,3.26.21,5.16c0,.54,0,1,0,1.35A2.35,2.35,0,0,1,433.37,182.76Z" transform="translate(-4.11 -5.41)"/></g><g id="Icons"><path class="cls-9" d="M105.11,536.69a10.31,10.31,0,0,1-1.7.11l-4.87.1-17.9.18-59.07.16H16.8v-.55c.07-22.07.13-41.86.17-56.26.07-7.07.13-12.81.17-16.91.05-1.91.08-3.43.11-4.58a9.89,9.89,0,0,1,.1-1.59,7.92,7.92,0,0,1,.11,1.59c0,1.15.06,2.67.11,4.58,0,4.1.1,9.84.17,16.91,0,14.4.1,34.19.17,56.26l-.56-.56h4.22l59.07.16,17.9.18,4.87.1A9.47,9.47,0,0,1,105.11,536.69Z" transform="translate(-4.11 -5.41)"/><path class="cls-9" d="M95.36,476.6a24.63,24.63,0,0,1-2.62,2.5l-7.41,6.5c-6.29,5.46-15,12.93-24.71,21.14L59.15,508l-.38.32-.36-.34-11-10.21.68,0L32,511.08l-4.68,3.75a11.57,11.57,0,0,1-1.75,1.25,10,10,0,0,1,1.53-1.51l4.49-4L47.44,497l.34-.29.34.31,11.05,10.16-.74,0,1.47-1.24c9.69-8.21,18.5-15.59,24.92-20.89l7.64-6.23A21.49,21.49,0,0,1,95.36,476.6Z" transform="translate(-4.11 -5.41)"/><path class="cls-9" d="M95.36,495c-.15,0-.29-2.08-.39-5.47s-.16-8.1-.17-13.34l.56.55h-1c-5.46,0-10.4-.06-14-.16s-5.79-.24-5.79-.39,2.22-.3,5.79-.4,8.52-.16,14-.16h1.51v.56c0,5.24-.08,9.94-.18,13.34S95.51,495,95.36,495Z" transform="translate(-4.11 -5.41)"/></g></svg>