<svg xmlns="http://www.w3.org/2000/svg" viewBox="0 0 1614.74 1643.62"><defs><style>.cls-1{isolation:isolate;}.cls-2{fill:#f4a640;}.cls-3{fill:#adcfd8;}.cls-13,.cls-4{fill:#55769f;}.cls-5,.cls-9{fill:#daeef7;}.cls-6{fill:#feb546;}.cls-7{fill:#ff5b7e;}.cls-8{fill:#e03268;}.cls-22,.cls-23,.cls-9{mix-blend-mode:multiply;}.cls-10{fill:#07085b;}.cls-11{fill:#02ccc0;}.cls-12{fill:#06bfad;}.cls-13{opacity:0.5;}.cls-14{fill:#c4dfe8;}.cls-15{fill:#ffc0bb;}.cls-16{fill:#fc8d84;opacity:0.6;}.cls-17{fill:#050645;}.cls-18{fill:#fff;}.cls-19{fill:#f99893;}.cls-20{fill:#333;}.cls-21{fill:#6f747a;}.cls-22{fill:#cdd6e0;}.cls-23{fill:#d9d9d9;}</style></defs><g class="cls-1"><g id="Layer_1" data-name="Layer 1"><path class="cls-2" d="M840.49,1340.14,1046.74,1423l255.31-635.73-174.34-70a34.39,34.39,0,0,0-44.73,19.1Z" transform="translate(-13.59 -12.41)"/><rect class="cls-3" x="862.36" y="791.91" width="401.07" height="563.91" transform="translate(1908.43 2304.38) rotate(-169.95)"/><rect class="cls-4" x="1012.68" y="851.36" width="179.1" height="4.02" transform="translate(2024.99 1873.63) rotate(-169.95)"/><rect class="cls-4" x="976.83" y="841.32" width="254.35" height="4.02" transform="translate(2030.28 1854.01) rotate(-169.95)"/><rect class="cls-4" x="940.56" y="892.93" width="308.59" height="4.02" transform="translate(2003.11 1954.85) rotate(-169.95)"/><rect class="cls-4" x="937.19" y="911.97" width="308.59" height="4.02" transform="translate(1993.09 1992.05) rotate(-169.95)"/><rect class="cls-4" x="930.44" y="950.06" width="308.59" height="4.02" transform="translate(1973.04 2066.46) rotate(-169.95)"/><rect class="cls-4" x="927.06" y="969.1" width="308.59" height="4.02" transform="matrix(-0.98, -0.17, 0.17, -0.98, 1963.01, 2103.66)"/><rect class="cls-4" x="923.69" y="988.14" width="308.59" height="4.02" transform="translate(1952.99 2140.86) rotate(-169.95)"/><rect class="cls-4" x="908.84" y="1071.9" width="308.59" height="4.02" transform="translate(1908.9 2304.5) rotate(-169.95)"/><rect class="cls-4" x="905.34" y="1091.64" width="308.59" height="4.02" transform="translate(1898.51 2343.08) rotate(-169.95)"/><rect class="cls-4" x="901.84" y="1111.39" width="308.59" height="4.02" transform="translate(1888.12 2381.65) rotate(-169.95)"/><rect class="cls-4" x="898.34" y="1131.14" width="308.59" height="4.02" transform="translate(1877.72 2420.23) rotate(-169.95)"/><rect class="cls-4" x="894.84" y="1150.88" width="308.59" height="4.02" transform="translate(1867.33 2458.81) rotate(-169.95)"/><rect class="cls-4" x="891.34" y="1170.63" width="308.59" height="4.02" transform="translate(1856.93 2497.39) rotate(-169.95)"/><rect class="cls-4" x="887.83" y="1190.37" width="308.59" height="4.02" transform="translate(1846.53 2535.97) rotate(-169.95)"/><rect class="cls-5" x="893.21" y="789.12" width="401.07" height="563.91" transform="translate(1865.29 2372.84) rotate(-165.26)"/><rect class="cls-4" x="1061.43" y="852.53" width="179.1" height="4.02" transform="translate(2032.99 1961.46) rotate(-165.26)"/><rect class="cls-4" x="1026.4" y="842.67" width="254.36" height="4.02" transform="translate(2040.6 1942.72) rotate(-165.26)"/><rect class="cls-4" x="985.94" y="893.36" width="308.59" height="4.02" transform="translate(2001.46 2039.04) rotate(-165.26)"/><rect class="cls-4" x="981.02" y="912.06" width="308.59" height="4.02" transform="translate(1987.02 2074.58) rotate(-165.26)"/><rect class="cls-4" x="971.17" y="949.46" width="308.59" height="4.02" transform="translate(1958.14 2145.65) rotate(-165.26)"/><rect class="cls-4" x="966.25" y="968.17" width="308.59" height="4.02" transform="translate(1943.69 2181.19) rotate(-165.26)"/><rect class="cls-4" x="961.33" y="986.87" width="308.59" height="4.02" transform="translate(1929.25 2216.72) rotate(-165.26)"/><rect class="cls-4" x="939.68" y="1069.13" width="308.59" height="4.02" transform="translate(1865.73 2373.03) rotate(-165.26)"/><rect class="cls-4" x="934.58" y="1088.52" width="308.59" height="4.02" transform="translate(1850.75 2409.88) rotate(-165.26)"/><rect class="cls-4" x="929.47" y="1107.92" width="308.59" height="4.02" transform="translate(1835.78 2446.72) rotate(-165.26)"/><rect class="cls-4" x="924.37" y="1127.31" width="308.59" height="4.02" transform="translate(1820.81 2483.57) rotate(-165.26)"/><rect class="cls-4" x="919.27" y="1146.7" width="308.59" height="4.02" transform="translate(1805.83 2520.42) rotate(-165.26)"/><rect class="cls-4" x="914.16" y="1166.1" width="308.59" height="4.02" transform="translate(1790.85 2557.28) rotate(-165.26)"/><rect class="cls-4" x="909.06" y="1185.49" width="308.59" height="4.02" transform="translate(1775.88 2594.12) rotate(-165.26)"/><path class="cls-6" d="M918.75,1371.57,1334,1538.33l242.18-603L1227.24,720.05a37.15,37.15,0,0,0-54,17.78Z" transform="translate(-13.59 -12.41)"/><path class="cls-7" d="M1418.52,1308.29l75.23-22c13.24-54.75,21.2-101.38,21.2-101.38-90.78,3.66-160.64,31.44-214.37,70.93l-11.11,89.42-24-60c-126.86,121-141.7,307.72-141.7,307.72s255.32-99.89,304-141.06c18.79-15.9,36.06-59.33,50.2-106.67C1452.56,1331.58,1418.52,1308.29,1418.52,1308.29Z" transform="translate(-13.59 -12.41)"/><path class="cls-8" d="M1515,1184.87s-298.8,234.38-391.18,408.12c0,0,255.32-99.89,304-141.06,18.79-15.9,36.06-59.33,50.2-106.67-25.4-13.68-59.44-37-59.44-37l75.23-22C1507,1231.5,1515,1184.87,1515,1184.87Z" transform="translate(-13.59 -12.41)"/><path class="cls-7" d="M1566.25,1414.9c-53-15.25-102.94-17.53-149-11.3-8.58,19.73-19.35,43.12-19.35,43.12l-12-37.46c-172.42,38.79-282.35,191.47-282.35,191.47,115.63,35.21,204.46,29.35,271.86,5,.46-14.39.83-35.76.83-35.76l20.5,27.14a308.23,308.23,0,0,0,79.7-52c-10.77-14-22.5-30.25-22.5-30.25l42.41,10.81C1547.57,1471.27,1566.25,1414.9,1566.25,1414.9Z" transform="translate(-13.59 -12.41)"/><path class="cls-8" d="M1375.41,1605.69c.46-14.39.83-35.76.83-35.76l20.5,27.14a308.23,308.23,0,0,0,79.7-52c-10.77-14-22.5-30.25-22.5-30.25l42.41,10.81c51.22-54.41,69.9-110.78,69.9-110.78-204.69,31.32-462.7,185.83-462.7,185.83C1219.18,1635.94,1308,1630.08,1375.41,1605.69Z" transform="translate(-13.59 -12.41)"/><path class="cls-8" d="M261.75,957.56h-28.4a29.75,29.75,0,0,1,16.78-5.07H961.48c37.22,0,67.39,26.74,67.39,59.73v37.94c0,33-30.17,59.74-67.39,59.74l-703.39-.21Z" transform="translate(-13.59 -12.41)"/><path class="cls-6" d="M969.2,1050.16v-37.94c0-33-30.17-59.73-67.39-59.73h15.28c37.21,0,67.38,26.74,67.38,59.73v37.94c0,33-30.17,59.74-67.38,59.74H902C939.14,1109.8,969.2,1083.1,969.2,1050.16Z" transform="translate(-13.59 -12.41)"/><path class="cls-6" d="M802.6,1050.16v-37.94c0-33-30.17-59.73-67.39-59.73h15.28c37.21,0,67.39,26.74,67.39,59.73v37.94c0,33-30.18,59.74-67.39,59.74H735.41C772.54,1109.8,802.6,1083.1,802.6,1050.16Z" transform="translate(-13.59 -12.41)"/><path class="cls-7" d="M665.6,952.63c35.59,0,64.44,25.57,64.44,57.12v42.88c0,31.55-28.85,57.13-64.44,57.13H222.76v-9.59h1.83l112.58-9.45,22.75-79.13S316,967.86,313.14,966.73s-88.55-4.55-88.55-4.55h-1.83v-9.54Z" transform="translate(-13.59 -12.41)"/><path class="cls-5" d="M251.48,1030.91c0-46.26-27-68.69-27-68.69h432c32.69,0,59.19,23.49,59.19,52.47v33c0,29-26.5,52.47-59.19,52.47h-432S251.48,1089.16,251.48,1030.91Z" transform="translate(-13.59 -12.41)"/><path class="cls-9" d="M715.72,1014.69v33a46.88,46.88,0,0,1-1.73,12.58c-14.57-31.6-42.49-62-95.65-71.83-124.12-22.85-393.83-26.23-393.83-26.23h432C689.22,962.22,715.72,985.71,715.72,1014.69Z" transform="translate(-13.59 -12.41)"/><path class="cls-10" d="M273.46,1272.2H241.32a31.37,31.37,0,0,1,19-6.36h805.11c42.13,0,76.27,33.48,76.27,74.77v47.5c0,41.29-34.14,74.77-76.27,74.77l-796.1-.27Z" transform="translate(-13.59 -12.41)"/><path class="cls-4" d="M730.54,1266c40.28,0,72.94,32,72.94,71.5v53.68c0,39.49-32.66,71.5-72.94,71.5H229.33v-12h2.08l127.41-11.82,25.76-99s-49.71-54.73-52.95-56.15S231.41,1278,231.41,1278l-2.08,0V1266Z" transform="translate(-13.59 -12.41)"/><path class="cls-5" d="M261.84,1364c0-57.91-30.52-86-30.52-86h489c37,0,67,29.41,67,65.68V1385c0,36.27-30,65.67-67,65.67H231.32S261.84,1436.92,261.84,1364Z" transform="translate(-13.59 -12.41)"/><path class="cls-9" d="M787.27,1343.7V1385a64.47,64.47,0,0,1-2,15.75c-16.49-39.56-48.09-77.66-108.26-89.91C536.58,1282.26,231.32,1278,231.32,1278h489C757.27,1278,787.27,1307.43,787.27,1343.7Z" transform="translate(-13.59 -12.41)"/><path class="cls-11" d="M1168.23,1114.54h32.15a37.08,37.08,0,0,0-19-5H376c-42.14,0-76.3,26.56-76.3,59.33v37.68c0,32.77,34.16,59.33,76.3,59.33l796.42-.21Z" transform="translate(-13.59 -12.41)"/><path class="cls-12" d="M711,1109.64c-40.3,0-73,25.4-73,56.74V1209c0,31.34,32.67,56.74,73,56.74h501.4v-9.52h-2.07l-127.47-9.39-25.76-78.59s49.72-43.43,53-44.55,100.26-4.52,100.26-4.52l2.07,0v-9.47Z" transform="translate(-13.59 -12.41)"/><path class="cls-5" d="M1179.85,1187.39c0-46,30.54-68.23,30.54-68.23H721.24c-37,0-67,23.34-67,52.12v32.78c0,28.78,30,52.12,67,52.12h489.15S1179.85,1245.25,1179.85,1187.39Z" transform="translate(-13.59 -12.41)"/><path class="cls-9" d="M654.22,1171.28v32.78a41.25,41.25,0,0,0,1.95,12.5c16.5-31.39,48.12-61.62,108.31-71.34,140.53-22.69,445.91-26.06,445.91-26.06H721.24C684.23,1119.16,654.22,1142.5,654.22,1171.28Z" transform="translate(-13.59 -12.41)"/><path class="cls-13" d="M447.2,1206.51v-37.68c0-32.77,34.16-59.33,76.31-59.33H447c-42.14,0-76.3,26.56-76.3,59.33v37.68c0,32.77,34.16,59.33,76.3,59.33l75.47,0C480.82,1265.4,447.2,1239,447.2,1206.51Z" transform="translate(-13.59 -12.41)"/><path class="cls-6" d="M1221.28,1468.91h40.31a50.93,50.93,0,0,0-23.82-5.63H228c-52.83,0-95.66,29.68-95.66,66.29v42.1c0,36.61,42.83,66.29,95.66,66.29l998.45-.23Z" transform="translate(-13.59 -12.41)"/><path class="cls-2" d="M648,1463.44c-50.52,0-91.48,28.38-91.48,63.39v47.58c0,35,41,63.39,91.48,63.39h628.59v-10.64H1274l-159.8-10.49-32.3-87.81s62.34-48.52,66.41-49.77,125.69-5,125.69-5l2.6,0v-10.58Z" transform="translate(-13.59 -12.41)"/><path class="cls-5" d="M1235.85,1550.31c0-51.34,38.29-76.23,38.29-76.23H660.91c-46.41,0-84,26.07-84,58.23v36.62c0,32.16,37.62,58.23,84,58.23h613.23S1235.85,1615,1235.85,1550.31Z" transform="translate(-13.59 -12.41)"/><path class="cls-9" d="M576.88,1532.31v36.62a41.57,41.57,0,0,0,2.45,14c20.68-35.07,60.32-68.85,135.78-79.71,176.18-25.35,559-29.11,559-29.11H660.91C614.5,1474.08,576.88,1500.15,576.88,1532.31Z" transform="translate(-13.59 -12.41)"/><path class="cls-14" d="M21.42,1636.76H1485.78a7.83,7.83,0,0,1,7.83,7.83v3.61a7.83,7.83,0,0,1-7.83,7.83H21.42a7.84,7.84,0,0,1-7.84-7.84v-3.6a7.84,7.84,0,0,1,7.84-7.84Z" transform="translate(1493.62 3280.38) rotate(180)"/><polygon class="cls-2" points="1489.01 989.47 1206.31 827.77 1168.1 903.46 1457.37 1056.5 1489.01 989.47"/><path class="cls-11" d="M1270.27,417.45s2.23,22,19.58,23.51c-17.35,1.52-19.58,23.51-19.58,23.51s-2.23-22-19.58-23.51C1268,439.44,1270.27,417.45,1270.27,417.45Z" transform="translate(-13.59 -12.41)"/><path class="cls-7" d="M1576.16,1058.39s3.35,33,29.38,35.26c-26,2.29-29.38,35.27-29.38,35.27s-3.34-33-29.37-35.27C1572.82,1091.37,1576.16,1058.39,1576.16,1058.39Z" transform="translate(-13.59 -12.41)"/><path class="cls-6" d="M1494.56,237.65s3,29.29,26.08,31.32c-23.11,2-26.08,31.31-26.08,31.31s-3-29.29-26.08-31.31C1491.59,266.94,1494.56,237.65,1494.56,237.65Z" transform="translate(-13.59 -12.41)"/><path class="cls-6" d="M118.94,1188.25s2,19.71,17.55,21.07c-15.55,1.37-17.55,21.07-17.55,21.07s-2-19.7-17.55-21.07C116.94,1208,118.94,1188.25,118.94,1188.25Z" transform="translate(-13.59 -12.41)"/><path class="cls-7" d="M1390.71,634.32s2,19.67,17.51,21c-15.52,1.36-17.51,21-17.51,21s-2-19.67-17.52-21C1388.71,654,1390.71,634.32,1390.71,634.32Z" transform="translate(-13.59 -12.41)"/><path class="cls-7" d="M1120.55,118.15s2,19.67,17.51,21c-15.52,1.36-17.51,21-17.51,21s-2-19.67-17.52-21C1118.55,137.82,1120.55,118.15,1120.55,118.15Z" transform="translate(-13.59 -12.41)"/><path class="cls-7" d="M307.06,368.48S309.67,394.21,330,396c-20.31,1.78-22.92,27.51-22.92,27.51s-2.61-25.73-22.92-27.51C304.45,394.21,307.06,368.48,307.06,368.48Z" transform="translate(-13.59 -12.41)"/><path class="cls-7" d="M132.37,814.22s3.83,37.71,33.58,40.32c-29.75,2.61-33.58,40.31-33.58,40.31s-3.82-37.7-33.57-40.31C128.55,851.93,132.37,814.22,132.37,814.22Z" transform="translate(-13.59 -12.41)"/><path class="cls-7" d="M1042.13,471.68s3,29.29,26.08,31.32c-23.11,2-26.08,31.31-26.08,31.31s-3-29.29-26.08-31.31C1039.16,501,1042.13,471.68,1042.13,471.68Z" transform="translate(-13.59 -12.41)"/><path class="cls-11" d="M1602.25,787.84s3,29.28,26.08,31.31c-23.11,2-26.08,31.31-26.08,31.31s-3-29.29-26.09-31.31C1599.27,817.12,1602.25,787.84,1602.25,787.84Z" transform="translate(-13.59 -12.41)"/><path class="cls-11" d="M151,186.9s2.12,20.86,18.58,22.3C153.07,210.64,151,231.51,151,231.51s-2.11-20.87-18.58-22.31C148.84,207.76,151,186.9,151,186.9Z" transform="translate(-13.59 -12.41)"/><path class="cls-11" d="M370.72,702.61s3.39,33.41,29.76,35.72c-26.37,2.31-29.76,35.72-29.76,35.72s-3.39-33.41-29.75-35.72C367.33,736,370.72,702.61,370.72,702.61Z" transform="translate(-13.59 -12.41)"/><path class="cls-6" d="M78.21,485.06s2.32,26.5,20.32,28.34c-18,1.83-20.32,28.34-20.32,28.34S75.9,515.23,57.9,513.4C75.9,511.56,78.21,485.06,78.21,485.06Z" transform="translate(-13.59 -12.41)"/><path class="cls-6" d="M509.29,61.31s2.32,26.58,20.38,28.42c-18.06,1.84-20.38,28.42-20.38,28.42S507,91.57,488.92,89.73C507,87.89,509.29,61.31,509.29,61.31Z" transform="translate(-13.59 -12.41)"/><path class="cls-9" d="M794.89,594.82l45.61,3.66-14.72,36.9-23-1.85-9.59,30.76c-2.33-1.07-4-1.88-4.4-2.11-.7-.46-3.24-15.73-5.48-30.14Z" transform="translate(-13.59 -12.41)"/><path class="cls-8" d="M820.92,934.14v16.08a2.4,2.4,0,0,0,2.39,2.41h37.54a2.73,2.73,0,0,0,1.47-5l-21.07-13.47S833,940.2,820.92,934.14Z" transform="translate(-13.59 -12.41)"/><path class="cls-15" d="M747.22,252.56a.74.74,0,0,1-1-.84c.94-4.47,3.81-18.53,2.73-19-1.29-.59-4.16,11.92-5.46,12.07s1.8-12,.32-12.39-3.94,10.74-4.62,10.79.53-10.9-.19-11.66-3.44,10.76-4.26,11-1.58-8.28-2.32-8.3-1.24-.16-5,19.64c0,0-.23,7.26-1.51,9l2.86,5.83,8.85.3s19.24-17.41,19.08-18.47S755.67,249.25,747.22,252.56Z" transform="translate(-13.59 -12.41)"/><path class="cls-15" d="M838.38,256.94a.74.74,0,0,0,1.27-.29c1.2-4.4,5.06-18.23,6.25-18.18,1.41.06-1.73,12.5-.64,13.23s3.85-11.48,5.36-11.18-1.39,11.36-.81,11.71,4.49-9.94,5.49-10.29-1.84,11.15-1.25,11.78,5.18-6.66,5.86-6.34,1.17.43-4.47,19.78c0,0-3.11,6.57-2.74,8.67l-5.2,3.88-8-3.77s-9.19-24.27-8.57-25.14S832.37,250.15,838.38,256.94Z" transform="translate(-13.59 -12.41)"/><polygon class="cls-15" points="754.41 403.09 754.55 436.94 721.67 431.87 727.15 393.8 754.41 403.09"/><path class="cls-16" d="M738.21,423.73l2.53-17.52L768,418.7v6.68C761.47,427,749.16,428.43,738.21,423.73Z" transform="translate(-13.59 -12.41)"/><path class="cls-8" d="M708.58,932.35V950a2.64,2.64,0,0,1-2.64,2.64H664.65a3,3,0,0,1-1.61-5.51l23.17-14.77S695.3,939,708.58,932.35Z" transform="translate(-13.59 -12.41)"/><path class="cls-10" d="M670.86,632.71c.09-3.77-9.73,7.35-9.55,4.34,3.86-62.62,126.22-10.11,126.22-10.11l29.87,21.91L851.12,939.1s-18.31,5.3-30.35,1L746.1,691.35l-9.19-3.54S696.08,659.32,670.86,632.71Z" transform="translate(-13.59 -12.41)"/><path class="cls-12" d="M661.18,639.61c0,.73-.07,1.48-.1,2.25C661.11,641.09,661.14,640.34,661.18,639.61Z" transform="translate(-13.59 -12.41)"/><path class="cls-12" d="M661.07,641.9c0,.78-.05,1.59-.08,2.41C661,643.49,661,642.68,661.07,641.9Z" transform="translate(-13.59 -12.41)"/><path class="cls-12" d="M661,644.63c0,.85-.05,1.72-.07,2.62C660.93,646.36,661,645.48,661,644.63Z" transform="translate(-13.59 -12.41)"/><path class="cls-12" d="M661.31,637.05c0,.68-.08,1.38-.11,2.1C661.23,638.43,661.27,637.73,661.31,637.05Z" transform="translate(-13.59 -12.41)"/><path class="cls-10" d="M661.33,622.82c25.21,26.61,75.58,65,75.58,65l9.19,3.54-9.19-3.54L708.52,939.1s-20.23,3.85-31.79-2.41C676.73,936.69,659.68,697.5,661.33,622.82Z" transform="translate(-13.59 -12.41)"/><path class="cls-12" d="M851.12,939.1a79.21,79.21,0,0,1-16.71,2.63,79.21,79.21,0,0,0,16.71-2.63Z" transform="translate(-13.59 -12.41)"/><path class="cls-12" d="M824.3,941c.81.17,1.64.3,2.48.41C825.94,941.34,825.11,941.21,824.3,941Z" transform="translate(-13.59 -12.41)"/><path class="cls-12" d="M834.41,941.73a50.26,50.26,0,0,1-6.37-.14A50.26,50.26,0,0,0,834.41,941.73Z" transform="translate(-13.59 -12.41)"/><path class="cls-17" d="M817.4,648.85l4.81,41.43c-12.74,4.93-43.78,10.2-67.16-41-7.38-16.13-9.28-27.74-7.92-36.08a332.18,332.18,0,0,1,40.4,13.71Z" transform="translate(-13.59 -12.41)"/><path class="cls-5" d="M705.13,479.78c1.41,0,22.6-48,22.6-48,18.13,12.71,42.74,3.89,42.74,3.89s99,181.19,32.61,209.45S674,639,674,639s-14.12-36.73-14.12-38.14S703.71,479.78,705.13,479.78Z" transform="translate(-13.59 -12.41)"/><path class="cls-4" d="M834.16,276.33s4.29,86-3.76,101.72c-26.73,52.28-59.93,57.58-59.93,57.58s-11.42,182.84-2,226.64c0,0,31.32,9.65,77.47-12,0,0-35.32-141.76-33.44-159.65,0,0,56.51-50.39,58.4-109.73s-13.66-112.09-13.66-112.09Z" transform="translate(-13.59 -12.41)"/><path class="cls-4" d="M681.81,655.67s3.54-68,19.08-132.57,26.84-91.36,26.84-91.36c-20.84-23-17.38-43.71-15.54-70.64,2.12-31.08,32.5-93.25,32.5-93.25L724.2,254.43c-98.19,118-43.8,211.92-43.8,211.92s-36.73,130-41.68,169.54A298.65,298.65,0,0,0,681.81,655.67Z" transform="translate(-13.59 -12.41)"/><path class="cls-18" d="M811.55,490.41a22.25,22.25,0,0,1-3.95-3.75c-4.16-5-6.32-10.68-7.81-17,.9,2.7,3.31,10.54,8.4,16.51a19.89,19.89,0,0,0,4.59,4.19l-.28.26,0,.37c-1.31.27-3.6.35-7.46-1.75a34.1,34.1,0,0,1-6.28-4.51,44.05,44.05,0,0,0,6.51,4A13.94,13.94,0,0,0,811.55,490.41Z" transform="translate(-13.59 -12.41)"/><path class="cls-18" d="M681.15,465.92a22.18,22.18,0,0,0,4.49-4.13c4.17-4.89,6.45-10.67,8.4-16.51-1.48,6.29-3.63,12-7.81,17a21.62,21.62,0,0,1-4,3.75,9,9,0,0,0,2.77-.32,18.44,18.44,0,0,0,3.54-1.32,43.91,43.91,0,0,0,6.51-4,34.3,34.3,0,0,1-6.28,4.51,18.39,18.39,0,0,1-3.6,1.51,7.69,7.69,0,0,1-4,.2l-.75-.2Z" transform="translate(-13.59 -12.41)"/><polygon class="cls-10" points="707.24 334.01 705.25 357.24 708.92 359.55 715.71 331.26 707.24 334.01"/><path class="cls-19" d="M725.76,367.25c1,5.26-1.58,10.18-5.79,11s-8.44-2.8-9.45-8.07,1.58-10.18,5.79-11S724.75,362,725.76,367.25Z" transform="translate(-13.59 -12.41)"/><path class="cls-15" d="M719.74,388.72a76.87,76.87,0,0,1-.33-19.51c.13-1.27.19-2.54.22-3.81a41.45,41.45,0,1,1,82.08,9.12,9,9,0,0,1,8,1c4.39,3.13,4.79,10.1.89,15.59s-10.62,7.42-15,4.3a7.92,7.92,0,0,1-1.59-1.52c-6,19.49-25.39,31.59-44.88,27.35C734.36,418,722.14,405.71,719.74,388.72Z" transform="translate(-13.59 -12.41)"/><path class="cls-20" d="M764.69,370.15a3.62,3.62,0,1,0,3.29-2.26A3.62,3.62,0,0,0,764.69,370.15Z" transform="translate(-13.59 -12.41)"/><path class="cls-20" d="M733.9,365.54a3.62,3.62,0,1,0,3.29-2.26A3.62,3.62,0,0,0,733.9,365.54Z" transform="translate(-13.59 -12.41)"/><path class="cls-19" d="M759.9,395.45a23.54,23.54,0,0,1-5.82,2,18.38,18.38,0,0,1-6.05.23,15.58,15.58,0,0,1-5.7-2,22,22,0,0,1-4.73-3.91,16.71,16.71,0,0,0,4.44,4.38,14.16,14.16,0,0,0,5.89,2.23,16.2,16.2,0,0,0,6.28-.41A18.09,18.09,0,0,0,759.9,395.45Z" transform="translate(-13.59 -12.41)"/><path class="cls-10" d="M761.77,362.8a34.74,34.74,0,0,1,5.4-.58,17.79,17.79,0,0,1,5,.6,16.55,16.55,0,0,1,4.62,2,49.46,49.46,0,0,1,4.43,3.18,12,12,0,0,0-3.17-4.82,11.68,11.68,0,0,0-5.21-2.9,12.16,12.16,0,0,0-6-.1A11.34,11.34,0,0,0,761.77,362.8Z" transform="translate(-13.59 -12.41)"/><path class="cls-10" d="M747.38,360.43a11.31,11.31,0,0,0-4-4.12,12.33,12.33,0,0,0-5.67-1.82,11.89,11.89,0,0,0-5.87,1.08,12.1,12.1,0,0,0-4.55,3.55,49.82,49.82,0,0,1,5.22-1.59,16.5,16.5,0,0,1,5-.42,18,18,0,0,1,5,1A34.41,34.41,0,0,1,747.38,360.43Z" transform="translate(-13.59 -12.41)"/><path class="cls-19" d="M753.65,365a50.56,50.56,0,0,0-4.71,5.11,48,48,0,0,0-4.06,5.69A13.58,13.58,0,0,0,743.1,380c-.12.76-.06,1.49,1.21,2.74A17.22,17.22,0,0,0,747,385a23.47,23.47,0,0,0,3,1.74,38.8,38.8,0,0,1-4.92-4.73,7.12,7.12,0,0,1-.8-1.24,2.78,2.78,0,0,1,.25-1.29,19.15,19.15,0,0,1,1.5-3c1.15-1.95,2.45-3.84,3.72-5.75S752.41,367,753.65,365Z" transform="translate(-13.59 -12.41)"/><path class="cls-10" d="M725.15,321.61S713,319.26,728,311.9s51.88-11.66,71.14,4.84c0,0,6.48-8.31,12.3-4.66s-6.06,7.69-6.06,7.69,8.13,1.56,9.7,6.08c1.16,3.34-3.81,2.35-6.49,1.61,4.43,1.82,17.43,14.1.54,47.64-3-1.4-22.31-29-22.31-29S748,358.9,755,348.32c0,0-45.27,11.38-34.3-9.14C720.74,339.18,704.06,336.67,725.15,321.61Z" transform="translate(-13.59 -12.41)"/><path class="cls-10" d="M809.11,375.1a8,8,0,0,0-7.4-.58c-4.48,1.66-7.33,11.7-7.33,11.7s-14.66,12-7.51-40.31c7-51.4,16.75,8.56,16.75,8.56Z" transform="translate(-13.59 -12.41)"/><path class="cls-6" d="M830.5,214.23l-67-4.77a6.16,6.16,0,0,1-5.71-6.58h0a6.16,6.16,0,0,1,6.58-5.7l67,4.77a6.17,6.17,0,0,1,5.71,6.58h0A6.16,6.16,0,0,1,830.5,214.23Z" transform="translate(-13.59 -12.41)"/><polygon class="cls-6" points="797.61 0 821.03 57.41 881.61 70.67 834.24 110.69 840.35 172.39 787.66 139.71 730.86 164.59 745.66 104.38 704.44 58.05 766.28 53.52 797.61 0"/><polygon class="cls-2" points="797.61 0 791.61 84.25 821.03 57.41 797.61 0"/><polygon class="cls-2" points="881.61 70.67 791.61 84.25 834.24 110.69 881.61 70.67"/><polygon class="cls-2" points="791.61 84.25 766.28 53.52 704.44 58.05 791.61 84.25"/><polygon class="cls-2" points="730.86 164.59 791.61 84.25 745.66 104.38 730.86 164.59"/><polygon class="cls-2" points="840.35 172.39 791.61 84.25 787.66 139.71 840.35 172.39"/><rect class="cls-21" x="744.58" y="213.11" width="102.08" height="35.88" transform="translate(4.85 -68.37) rotate(4.08)"/><rect class="cls-22" x="792.52" y="195.94" width="3.92" height="102.08" transform="translate(478.09 1009.5) rotate(-85.93)"/><rect class="cls-22" x="794.87" y="163.06" width="3.92" height="102.08" transform="matrix(0.07, -1, 1, 0.07, 513.07, 981.3)"/><path class="cls-2" d="M846.92,218.47l-100.3-7.14a4.61,4.61,0,0,1-4.27-4.93h0a4.61,4.61,0,0,1,4.92-4.27l100.3,7.15a4.6,4.6,0,0,1,4.27,4.92h0A4.6,4.6,0,0,1,846.92,218.47Z" transform="translate(-13.59 -12.41)"/><path class="cls-21" d="M846.57,261l-107-7.63a1.23,1.23,0,0,1-1.14-1.32l.47-6.72a1.24,1.24,0,0,1,1.33-1.15l107,7.62a1.24,1.24,0,0,1,1.15,1.33l-.48,6.72A1.24,1.24,0,0,1,846.57,261Z" transform="translate(-13.59 -12.41)"/><path class="cls-6" d="M814,240.84l-38.72-2.76a8.74,8.74,0,0,1-8.09-9.34h0a8.73,8.73,0,0,1,9.33-8.09l38.72,2.76a8.73,8.73,0,0,1,8.09,9.33h0A8.73,8.73,0,0,1,814,240.84Z" transform="translate(-13.59 -12.41)"/><path class="cls-23" d="M775.45,235.17a5.82,5.82,0,0,1-5.3-6.93,6,6,0,0,1,6.37-4.67l38.23,2.73a6,6,0,0,1,5.65,5.52,5.83,5.83,0,0,1-6.23,6.11Z" transform="translate(-13.59 -12.41)"/><path class="cls-6" d="M808.37,204.05l-21.54-1.53.14-2c.58-8.12,1.48-25,14.27-48.4h0c9.72,26.77,7.85,41.82,7.27,49.94Z" transform="translate(-13.59 -12.41)"/></g></g></svg>