<svg id="Layer_1" data-name="Layer 1" xmlns="http://www.w3.org/2000/svg" xmlns:xlink="http://www.w3.org/1999/xlink" viewBox="0 0 498.1 268.87"><defs><style>.cls-1{fill:none;}.cls-2{fill:#fff;}.cls-3{clip-path:url(#clip-path);}.cls-4,.cls-5,.cls-7{fill:#336ec2;}.cls-4{opacity:0.3;}.cls-5,.cls-8{opacity:0.15;}.cls-6{opacity:0.35;}</style><clipPath id="clip-path" transform="translate(58.9 -1.96)"><path class="cls-1" d="M49.48,77c-52.22,21-51,56.71-35.81,69.34,12.85,10.67,31.38,9.87,48,8.51,25.86-2.12,74.8-1.53,99.22,1.52,16.24,2,27.67,19,30.53,35.11s-7.63,61.06,16.79,64.11c24.24,3,22.42-44.1,22.9-56.48s0-44.26,15.26-44.26,15.07,37.93,14.61,48c-.87,19.19,22,23.77,23.84-1.1.65-9-9.44-39.24,5.82-39.24s2.88,33.4,12.06,38c15.42,7.76,15.46-17,20-24.29C339.52,149,389,176.67,405,149c9.09-15.76-1.39-36.2-15.66-47.5S357.19,83.87,343.8,71.54C326.9,56,318.55,32.13,299.72,19,275.09,1.76,218.5-2.53,189.91,6.74,133.43,25.06,96.8,57.9,49.48,77Z"/></clipPath></defs><path class="cls-2" d="M49.48,77c-52.22,21-51,56.71-35.81,69.34,12.85,10.67,31.38,9.87,48,8.51,25.86-2.12,74.8-1.53,99.22,1.52,16.24,2,27.67,19,30.53,35.11s-7.63,61.06,16.79,64.11c24.24,3,22.42-44.1,22.9-56.48s0-44.26,15.26-44.26,15.07,37.93,14.61,48c-.87,19.19,22,23.77,23.84-1.1.65-9-9.44-39.24,5.82-39.24s2.88,33.4,12.06,38c15.42,7.76,15.46-17,20-24.29C339.52,149,389,176.67,405,149c9.09-15.76-1.39-36.2-15.66-47.5S357.19,83.87,343.8,71.54C326.9,56,318.55,32.13,299.72,19,275.09,1.76,218.5-2.53,189.91,6.74,133.43,25.06,96.8,57.9,49.48,77Z" transform="translate(58.9 -1.96)"/><g class="cls-3"><path class="cls-4" d="M424.8,112.28C419.29,78.37,386,49.44,360.74,29c-15.4-12.44-34.89,6.49-21.86,21.86C353,67.52,371.54,80.21,384.26,98.15c14.92,21,9.8,46.41-18.64,49.2-15.52,1.53-31.78-1.66-46.3,5.62l-.07,0a8.35,8.35,0,0,1-9.38-1c-6.15-5.52-15.17-7-23.31-4.15a23.66,23.66,0,0,0-6.55,3.55,8.13,8.13,0,0,1-11.4-1.64,24.88,24.88,0,0,0-9.49-7.47c-24.16-11.37-40,10-42.88,31.33-1.72,12.65-.51,25.18-.19,37.87.14,5.71,2.28,15.5-1.74,20.19-6.91,8-8.77-.28-9.82-8.18C201,197.35,215,171.09,190.65,151c-23.13-19.09-64.33-13.8-91.87-11.76-20.9,1.55-44.84,5.75-64-5.21-22.73-13-17.82-31.15-4.8-49.35C33.28,80,28.74,74,23.73,73.87c-22.14-.67-35.28,20-34.39,40.78,1,23.94,20.25,42.59,41,51.68,29.25,12.82,62.14,4.53,92.85,4.36,12.65-.07,27.45-1.55,39.57,2.53,14.39,4.85,10.89,18.42,10.07,31-1.36,20.65-1,42.45,15.15,58,16.83,16.19,39.66,7.61,51.82-9.91a46.46,46.46,0,0,0,6.68-14.58c1.56-5.83,8.81-7.81,13.39-3.87,5.63,4.83,13,6.59,22.6,2.21,4.53-2.07,9-7.79,12.58-14.86a8.14,8.14,0,0,1,8.42-4.35,23.35,23.35,0,0,0,16.6-4c5.05-3.46,8-8.31,10-14,1.6-4.49,1.39-15.42,3.56-17.65,5.61-5.74,33.68-1.17,43.09-3C407.89,172.19,430,144.33,424.8,112.28Z" transform="translate(58.9 -1.96)"/><path class="cls-5" d="M404.08,39.53c-9.74-6-61.1,24.91-51.41,30.17C379,84,403.05,131,359,135c-19.09,1.74-58.15-14.29-76.7-17.74-26.09-4.86-52.78-9.23-79-6.3-46.94,5.25-88.57,10.08-135.56,6.5-2-.16-4.5-.25-7.2-.35a22.91,22.91,0,0,1-13.75-5.18l-.21-.17a23.44,23.44,0,0,1-5.73-29.44q1.78-3.19,3.68-6.4C65,41.18,21.79-9-14.13,17.26c-27.4,20.05-47.95,52.55-44.36,85.68a85.5,85.5,0,0,0,1.42,26.17c6.94,32.58,31.36,55.26,61.81,66.45A133.44,133.44,0,0,0,20,200.07a24.22,24.22,0,0,1,7.77,3.32c8.06,5.35,16,10.35,23.55,15C88.51,241.4,131,261,174.66,266.28c33.44,4,67.61-8.66,100.68-8.35a24.12,24.12,0,0,1,11.45,3c15.92,8.82,37.62,8.65,53.13-5.14l6.62-5.88c8-7.12,12.21-15.44,13.43-24a22.73,22.73,0,0,1,15.11-18.08,93.57,93.57,0,0,0,16.66-7.64C443.48,170,460.47,74.45,404.08,39.53Z" transform="translate(58.9 -1.96)"/></g><g class="cls-6"><path class="cls-7" d="M88.5,97a.63.63,0,0,0,0-1.25.63.63,0,0,0,0,1.25Z" transform="translate(58.9 -1.96)"/></g><g class="cls-6"><path class="cls-7" d="M113.11,89.16a.28.28,0,0,0,0-.56.28.28,0,0,0,0,.56Z" transform="translate(58.9 -1.96)"/></g><g class="cls-6"><path class="cls-7" d="M241.11,37.71l0,0a.75.75,0,0,0-.21.51.67.67,0,0,0,.06.28.51.51,0,0,0,.15.23.76.76,0,0,0,.51.22.73.73,0,0,0,.52-.22l.47-.52a.93.93,0,0,0,.26-.39h0a1.1,1.1,0,0,1,0-.18,1.08,1.08,0,0,0,0-.19h0l0,0v.31h0l-.06.13.15-.26a.48.48,0,0,0-.18-.67.5.5,0,0,0-.38-.05.48.48,0,0,0-.29.23v0a.42.42,0,0,0-.06.31.41.41,0,0,0,.13.27.57.57,0,0,0,.21.13.51.51,0,0,0,.38,0h0l-.5-.85-.26.15.14-.06h.3a.43.43,0,0,0-.23,0L242,37l-.08,0a.4.4,0,0,0-.22.14l0,0-.05,0-.19.17-.3.28-.06,0,1,1,0,0a.51.51,0,0,0,.15-.23.68.68,0,0,0,0-.56.51.51,0,0,0-.15-.23.77.77,0,0,0-.52-.22.72.72,0,0,0-.51.22Z" transform="translate(58.9 -1.96)"/></g><g class="cls-6"><path class="cls-7" d="M365.84,102.6a.27.27,0,0,0,0-.53.27.27,0,0,0,0,.53Z" transform="translate(58.9 -1.96)"/></g><g class="cls-6"><path class="cls-7" d="M332.93,103.76a.57.57,0,0,0,0-1.13.57.57,0,0,0,0,1.13Z" transform="translate(58.9 -1.96)"/></g><g class="cls-8"><path class="cls-7" d="M96.8,83.83a.39.39,0,0,0,0-.77.39.39,0,0,0,0,.77Z" transform="translate(58.9 -1.96)"/></g><g class="cls-8"><path class="cls-7" d="M229,18.13a.52.52,0,0,0,0-1,.52.52,0,0,0,0,1Z" transform="translate(58.9 -1.96)"/></g><g class="cls-8"><path class="cls-7" d="M254.22,23.06a.3.3,0,0,0,0-.59.3.3,0,0,0,0,.59Z" transform="translate(58.9 -1.96)"/></g><g class="cls-8"><path class="cls-7" d="M363.55,119.77a.27.27,0,0,0,0-.53.27.27,0,0,0,0,.53Z" transform="translate(58.9 -1.96)"/></g><g class="cls-8"><path class="cls-7" d="M295.43,54.54a.29.29,0,0,0,0-.58.29.29,0,0,0,0,.58Z" transform="translate(58.9 -1.96)"/></g></svg>