<svg id="Layer_1" data-name="Layer 1" xmlns="http://www.w3.org/2000/svg" viewBox="0 0 360.18 97.41"><defs><style>.cls-1{fill:#100e0f;}</style></defs><path class="cls-1" d="M73,45.43H42.69a1.42,1.42,0,0,0-1.41,1.42v14.8a1.41,1.41,0,0,0,1.41,1.41H54.5V81.45s-2.65.9-10,.9c-8.65,0-20.73-3.16-20.73-29.72S36.37,22.56,48.18,22.56c10.22,0,14.63,1.8,17.43,2.67a1.43,1.43,0,0,0,1.7-1.39L70.68,9.55a1.31,1.31,0,0,0-.54-1.11c-1.14-.81-8.08-4.7-25.62-4.7-20.2,0-40.93,8.6-40.93,49.93s23.73,47.48,43.73,47.48c16.55,0,26.6-7.08,26.6-7.08.41-.22.46-.8.46-1.07V46.85A1.43,1.43,0,0,0,73,45.43Z" transform="translate(-3.59 -3.74)"/><path class="cls-1" d="M229,8.7a1.42,1.42,0,0,0-1.41-1.43h-17a1.42,1.42,0,0,0-1.41,1.43V41.63H182.53V8.7a1.42,1.42,0,0,0-1.41-1.43h-17a1.42,1.42,0,0,0-1.41,1.43V97.87a1.42,1.42,0,0,0,1.41,1.43h17a1.42,1.42,0,0,0,1.41-1.43V59.73h26.56l0,38.14a1.42,1.42,0,0,0,1.41,1.43h17.08A1.43,1.43,0,0,0,229,97.87Z" transform="translate(-3.59 -3.74)"/><path class="cls-1" d="M105.12,20.4a11,11,0,1,0-11,11.1A11,11,0,0,0,105.12,20.4Z" transform="translate(-3.59 -3.74)"/><path class="cls-1" d="M103.9,79.06V37.9a1.42,1.42,0,0,0-1.41-1.42h-17A1.61,1.61,0,0,0,84,38.06V97c0,1.73,1.08,2.25,2.48,2.25h15.3c1.68,0,2.09-.83,2.09-2.28Z" transform="translate(-3.59 -3.74)"/><path class="cls-1" d="M293.71,36.61H276.8A1.43,1.43,0,0,0,275.39,38V81.76A19,19,0,0,1,265,84.91c-6.1,0-7.72-2.77-7.72-8.74V38a1.42,1.42,0,0,0-1.4-1.43H238.71a1.42,1.42,0,0,0-1.4,1.43v41c0,17.73,9.88,22.07,23.48,22.07,11.15,0,20.15-6.16,20.15-6.16a34.16,34.16,0,0,0,.62,3.63,1.49,1.49,0,0,0,1.24.77l10.92-.05a1.42,1.42,0,0,0,1.41-1.42V38A1.42,1.42,0,0,0,293.71,36.61Z" transform="translate(-3.59 -3.74)"/><path class="cls-1" d="M339.94,34.61a31.82,31.82,0,0,0-16.14,4.28V8.7a1.42,1.42,0,0,0-1.41-1.43H305.3a1.42,1.42,0,0,0-1.41,1.43V97.87a1.42,1.42,0,0,0,1.41,1.43h11.86a1.43,1.43,0,0,0,1.24-.76,28.4,28.4,0,0,0,.72-4.11s7,6.62,20.21,6.62c15.54,0,24.44-7.87,24.44-35.36S349.55,34.61,339.94,34.61Zm-6.68,50.24A20.3,20.3,0,0,1,323.42,82V53.77a22.73,22.73,0,0,1,8.74-2.84c6.09-.54,12,1.3,12,15.83C344.12,82.08,341.47,85.1,333.26,84.85Z" transform="translate(-3.59 -3.74)"/><path class="cls-1" d="M152.88,36.47H140.1l0-16.89c0-.64-.33-1-1.07-1H121.59c-.68,0-1,.3-1,.95V37s-8.73,2.11-9.32,2.28a1.41,1.41,0,0,0-1,1.36v11a1.42,1.42,0,0,0,1.41,1.42h8.93V79.43c0,19.6,13.75,21.53,23,21.53a38.91,38.91,0,0,0,10.15-1.67,1.33,1.33,0,0,0,.8-1.28V85.94a1.44,1.44,0,0,0-1.41-1.42c-.75,0-2.65.3-4.61.3-6.28,0-8.41-2.92-8.41-6.7V53.05h12.78a1.42,1.42,0,0,0,1.41-1.42V37.89A1.41,1.41,0,0,0,152.88,36.47Z" transform="translate(-3.59 -3.74)"/></svg>