<?xml version="1.0" encoding="utf-8"?>
<!-- Generator: Adobe Illustrator 24.3.0, SVG Export Plug-In . SVG Version: 6.00 Build 0)  -->
<svg version="1.1" id="b349698d-76f6-4d11-bd66-db075a783fa5"
	 xmlns="http://www.w3.org/2000/svg" xmlns:xlink="http://www.w3.org/1999/xlink" x="0px" y="0px" viewBox="0 0 783.6 1271.5"
	 style="enable-background:new 0 0 783.6 1271.5;" xml:space="preserve">
<style type="text/css">
	.st0{display:none;}
	.st1{display:inline;fill:#E6E6E6;}
	.st2{display:inline;fill:#6C63FF;}
	.st3{display:inline;fill:#CCCCCC;}
	.st4{fill:#FFB8B8;}
	.st5{fill:#2F2E41;}
	.st6{fill:#6C63FF;}
	.st7{fill:#CCCCCC;}
	.st8{display:inline;fill:#FFFFFF;}
	.st9{font-family:'Montserrat-Bold';}
	.st10{font-size:55.5px;}
</style>
<g class="st0">
	<path class="st1" d="M1087.1,619.8h-532c-8.8,0-16-7.2-16-16s7.2-16,16-16h532c8.8,0,16,7.2,16,16S1096,619.8,1087.1,619.8z"/>
	<path class="st1" d="M1087.1,551.8h-532c-8.8,0-16-7.2-16-16s7.2-16,16-16h532c8.8,0,16,7.2,16,16S1096,551.8,1087.1,551.8z"/>
	<path class="st2" d="M671.1,473h-116c-9.4,0-17-7.6-17-17v-84.5c0-9.4,7.6-17,17-17h116c9.4,0,17,7.6,17,17V456
		C688.1,465.4,680.5,473,671.1,473z"/>
	<path class="st3" d="M1087.7,463.8h-270c-8.8,0-16-7.2-16-16s7.2-16,16-16h270c8.8,0,16,7.2,16,16S1096.6,463.8,1087.7,463.8z"/>
	<path class="st3" d="M975.7,395.8h-158c-8.8,0-16-7.2-16-16s7.2-16,16-16h158c8.8,0,16,7.2,16,16S984.6,395.8,975.7,395.8z"/>
</g>
<g>
	<polygon class="st4" points="265.2,1228.5 299.5,1228.5 315.8,1096.2 265.2,1096.2 	"/>
	<path class="st5" d="M365.7,1260.4l-107.8,0l0,0l0-41.6l0,0l66.1,0C347,1218.7,365.7,1237.4,365.7,1260.4L365.7,1260.4
		L365.7,1260.4z"/>
	<polygon class="st4" points="541.2,1228.5 575.5,1228.5 591.8,1096.2 541.2,1096.2 	"/>
	<path class="st5" d="M641.7,1260.4l-107.8,0l0,0l0-41.6l0,0l66.1,0C623,1218.7,641.7,1237.4,641.7,1260.4L641.7,1260.4
		L641.7,1260.4z"/>
	<path class="st5" d="M257.8,1179.8c-6.5,0-12-4.6-13.2-10.9l-22-276.7c-23.7-234.4,16.9-316.9,17.3-317.7l0.4-0.9l1,0.1l190.4,11
		L472,716.8l106.8,143.5c16.9,22.8,25.9,50.5,25.6,78.9l-2.7,209.2c-0.1,7-5.6,12.8-12.6,13.3l-55.8,3.9c-7.2,0.5-13.6-4.8-14.4-12
		l-13.8-227.2c0-0.2-0.2-0.5-0.3-0.6L346.5,778.1c-1.7-1.8-4.6-1.9-6.4-0.2c-0.5,0.5-0.9,1-1.1,1.7l-16,384.6
		c0.4,3.7-0.8,7.4-3.3,10.1c-2.5,2.8-6.1,4.5-9.9,4.6l-51.7,0.9C258,1179.8,257.9,1179.8,257.8,1179.8z"/>
	<circle class="st5" cx="345.5" cy="203.8" r="96.1"/>
	<path class="st4" d="M758.4,392.5c-13.5-7.6-30.7-2.9-38.3,10.7c-0.8,1.4-1.5,3-2,4.5l-64.2,3.6l-7.3,39.5l90.6-6.4
		c15.1,4.2,30.6-4.6,34.8-19.7C775.4,412.2,769.9,398.8,758.4,392.5z"/>
	<path class="st4" d="M228.1,718.7c6.7-14,0.8-30.8-13.2-37.5c-1.5-0.7-3-1.3-4.6-1.7l-7.9-63.8l-39.9-4.7l12.4,89.9
		c-3.2,15.3,6.7,30.3,22,33.4C209.5,737,222.5,730.5,228.1,718.7L228.1,718.7z"/>
	<circle class="st4" cx="341.3" cy="233.2" r="73.7"/>
	<path class="st6" d="M355.9,610.6c-39.2,0-72-3.2-104.6-14.8c-13.4-4.8-14.8-10.7-16.7-18.2c-3-11.7-4.6-149.6,10.7-195.4
		c8.5-25.1,30.6-43.1,56.9-46.3c14.5-1.7,58.1-7.9,82.7-11.4c12.1-1.8,24.4,1.2,34.3,8.4c6.5,4.9,9.9,10.2,10.1,15.7l6.7,233.2
		c0.5,14-10.3,25.9-24.3,26.8C396.6,609.7,377.1,610.6,355.9,610.6z"/>
	<path class="st6" d="M161,667.8c-7.5,0-13.5-6-13.5-13.5c0-0.2,0-0.3,0-0.5l2.3-107c0.5-13.2,4.5-26.1,11.5-37.3l90.8-145.6
		c5.8-9.2,15.9-14.8,26.8-14.8c10.9,0,21,5.7,26.7,15l0,0c5.9,9.6,6.2,21.7,0.7,31.6l-88.1,160.1l6.1,98.2
		c0.1,7.5-5.8,13.6-13.3,13.7c-0.1,0-0.1,0-0.2,0L161,667.8L161,667.8z"/>
	<path class="st6" d="M699.1,466.7c-2.4,2.7-5.9,4.4-9.6,4.5l-106.9,5.7c-13.2,0.5-26.3-2.5-38-8.6l-152-79.6
		c-15.4-8.1-21.3-27.1-13.3-42.4c2.3-4.3,5.5-8.1,9.5-10.9l0.9,1.2l-0.9-1.2c9.2-6.6,21.2-7.8,31.4-3.1L586.4,408l97.6-13.4
		c7.4-0.6,14,4.8,14.6,12.3c0,0,0,0.1,0,0.1l3.8,49.7c0,0.2,0,0.5,0,0.7C702.6,460.9,701.3,464.2,699.1,466.7z"/>
	<polygon class="st5" points="286.7,222.8 267.6,171.2 353.6,146.3 415,165.2 415,222.8 	"/>
	<path class="st5" d="M377.1,106.4C372,48.8,321.2,6.2,263.6,11.3c-28,2.5-53.8,16.1-71.7,37.8c-18.1,22-26.4,50.2-32.5,78
		s-10.5,56.3-22.4,82.1s-32.8,49.3-60.4,56.1S15.4,256.8,9,229.1c2,37.8,19.2,73.3,47.7,98.3c23.9,20.8,63,13.4,86.6-7.8
		s35.2-52.3,45.3-82.3s20-61.3,41.4-84.7s82-48.2,109.5-32.4C361.1,132.5,368.8,124.7,377.1,106.4z"/>
	<path class="st7" d="M760,1262.3H166c-1.7,0-3-1.3-3-3c0-1.7,1.3-3,3-3h594c1.7,0,3,1.3,3,3C763,1261,761.6,1262.3,760,1262.3z"/>
</g>
<g class="st0">
	<path class="st1" d="M872.8,664.7h-348c-9.1,0-16.5-7.4-16.5-16.5v-177c0-9.1,7.4-16.5,16.5-16.5h348c9.1,0,16.5,7.4,16.5,16.5v177
		C889.3,657.3,881.9,664.7,872.8,664.7z"/>
	<path class="st8" d="M868.8,652.7h-340c-4.7,0-8.5-3.8-8.5-8.5v-169c0-4.7,3.8-8.5,8.5-8.5h340c4.7,0,8.5,3.8,8.5,8.5v169
		C877.3,648.9,873.5,652.7,868.8,652.7z"/>
	<text transform="matrix(1 0 0 1 546.87 571.1702)" class="st1 st9 st10">PROJECTS</text>
</g>
</svg>
